<?xml version="1.0" encoding="UTF-8" standalone="no"?>
<!-- Created with Inkscape (http://www.inkscape.org/) -->

<svg
   xmlns:dc="http://purl.org/dc/elements/1.1/"
   xmlns:cc="http://creativecommons.org/ns#"
   xmlns:rdf="http://www.w3.org/1999/02/22-rdf-syntax-ns#"
   xmlns:svg="http://www.w3.org/2000/svg"
   xmlns="http://www.w3.org/2000/svg"
   xmlns:sodipodi="http://sodipodi.sourceforge.net/DTD/sodipodi-0.dtd"
   xmlns:inkscape="http://www.inkscape.org/namespaces/inkscape"
   width="800"
   height="800"
   id="svg4148"
   version="1.1"
   inkscape:version="0.47 r22583"
   sodipodi:docname="Spigot.svg"
   inkscape:export-filename="C:\spigot.png"
   inkscape:export-xdpi="11.25"
   inkscape:export-ydpi="11.25">
  <defs
     id="defs3">
    <inkscape:perspective
       sodipodi:type="inkscape:persp3d"
       inkscape:vp_x="0 : 526.18109 : 1"
       inkscape:vp_y="0 : 1000 : 0"
       inkscape:vp_z="744.09448 : 526.18109 : 1"
       inkscape:persp3d-origin="372.04724 : 350.78739 : 1"
       id="perspective4154" />
    <inkscape:perspective
       id="perspective4115"
       inkscape:persp3d-origin="0.5 : 0.33333333 : 1"
       inkscape:vp_z="1 : 0.5 : 1"
       inkscape:vp_y="0 : 1000 : 0"
       inkscape:vp_x="0 : 0.5 : 1"
       sodipodi:type="inkscape:persp3d" />
  </defs>
  <sodipodi:namedview
     inkscape:document-units="mm"
     id="base"
     pagecolor="#ffffff"
     bordercolor="#666666"
     borderopacity="1.0"
     inkscape:pageopacity="0.0"
     inkscape:pageshadow="2"
     inkscape:zoom="0.90375"
     inkscape:cx="400"
     inkscape:cy="400"
     inkscape:current-layer="layer1"
     showgrid="false"
     inkscape:window-width="1280"
     inkscape:window-height="968"
     inkscape:window-x="-4"
     inkscape:window-y="-4"
     inkscape:window-maximized="1">
    <inkscape:grid
       type="xygrid"
       id="grid4223"
       empspacing="5"
       visible="true"
       enabled="true"
       snapvisiblegridlinesonly="true" />
  </sodipodi:namedview>
  <metadata
     id="metadata4">
    <rdf:RDF>
      <cc:Work
         rdf:about="">
        <dc:format>image/svg+xml</dc:format>
        <dc:type
           rdf:resource="http://purl.org/dc/dcmitype/StillImage" />
        <dc:title></dc:title>
      </cc:Work>
    </rdf:RDF>
  </metadata>
  <g
     inkscape:label="Layer 1"
     inkscape:groupmode="layer"
     id="layer1"
     transform="translate(0,-252.36218)">
    <rect
       style="opacity:0.98557691000000003;fill:#ff6600;fill-opacity:0.95294118000000005;fill-rule:nonzero;stroke:none"
       id="rect4221"
       width="800"
       height="643.50623"
       x="6.9874662e-15"
       y="252.36218" />
    <rect
       style="fill:#ffffff;fill-opacity:1;stroke:none"
       id="rect3746"
       width="41.039761"
       height="41.670052"
       x="509.53229"
       y="485.13013"
       transform="matrix(0.88687242,0.4620144,-0.50363214,0.86391821,0,0)"
       inkscape:transform-center-x="-13.077777"
       inkscape:transform-center-y="24.627271" />
    <rect
       style="fill:#ffffff;fill-opacity:1;stroke:none"
       id="rect3748"
       width="33.669632"
       height="40.496326"
       x="33.149506"
       y="-728.44806"
       transform="matrix(-0.72431083,0.68947358,-0.28923297,-0.95725874,0,0)"
       inkscape:transform-center-x="-8.777533"
       inkscape:transform-center-y="13.166347" />
    <rect
       style="fill:#ffffff;fill-opacity:1;stroke:none"
       id="rect3754"
       width="31.350351"
       height="34.883255"
       x="160.88148"
       y="623.34283" />
    <rect
       style="fill:#ffffff;fill-opacity:1;stroke:none"
       id="rect3756"
       width="35.631687"
       height="37.719536"
       x="-102.78107"
       y="624.37311"
       transform="matrix(0.79856999,-0.60190196,0.44975022,0.89315438,0,0)" />
    <rect
       style="fill:#ffffff;fill-opacity:1;stroke:none"
       id="rect3758"
       width="31.741453"
       height="44.762184"
       x="748.41895"
       y="-59.652943"
       transform="matrix(0.25860639,0.96598278,-0.97837678,0.20683055,0,0)" />
    <rect
       style="fill:#ffffff;fill-opacity:1;stroke:none"
       id="rect3760"
       width="41.243958"
       height="35.209023"
       x="695.3457"
       y="382.41592"
       transform="matrix(0.71011998,0.70408069,-0.70261482,0.71157039,0,0)" />
    <g
       id="g2944"
       transform="matrix(1.3310356,0,0,1.3776646,-235.43233,387.4457)">
      <path
         inkscape:label="Spout"
         sodipodi:nodetypes="csccccc"
         id="Spout"
         d="m 295.37107,119.80411 c -0.55164,31.31524 25.22482,26.67927 52.89795,21.23952 25.23249,-4.96 14.4869,7.68498 36.81926,-12.66377 13.9413,-10.32512 87.23717,-11.03731 146.08695,-1.73337 L 531.74272,75.568131 414.78889,73.86654 C 378.9456,78.174815 296.73121,55.635047 295.37107,119.80411 z"
         style="fill:#ffffff;fill-opacity:1;fill-rule:nonzero;stroke:none" />
      <rect
         y="-37.287659"
         x="575.20557"
         height="60.848824"
         width="37.877186"
         id="rect4523"
         style="fill:#ffffff;fill-opacity:1;fill-rule:nonzero;stroke:none" />
      <rect
         inkscape:label="#rect4528"
         y="-74.132027"
         x="578.55493"
         height="14.042037"
         width="27.224226"
         id="top"
         style="fill:#ffffff;fill-opacity:1;fill-rule:nonzero;stroke:none" />
      <path
         inkscape:label="#path4525"
         sodipodi:nodetypes="csssc"
         id="handle"
         d="m 679.34918,-47.035679 c -1.01371,26.938753 -15.3786,12.879754 -82.86976,12.879754 -67.49117,0 -82.98455,9.912635 -82.36322,-12.879754 0.64346,-23.604459 13.40415,-13.392412 80.89531,-13.392412 67.49116,0 84.33767,-8.559336 84.33767,13.392412 z"
         style="fill:#ffffff;fill-opacity:1;fill-rule:nonzero;stroke:none" />
      <rect
         y="163.25925"
         x="567.55231"
         height="111.16612"
         width="60.366764"
         id="rect4740"
         style="fill:#ffffff;fill-opacity:1;fill-rule:nonzero;stroke:none" />
      <path
         sodipodi:nodetypes="ccccc"
         id="rect3745"
         d="m 528.185,29.347437 c 0,-38.9292018 133.38321,-41.945239 133.38321,0 l 0,134.525573 c -65.38392,55.80943 -64.07626,53.19477 -133.38321,0 l 0,-134.525573 z"
         style="fill:#ffffff;fill-opacity:1;stroke:none" />
    </g>
    <rect
       style="fill:#ffffff;fill-opacity:1;stroke:none"
       id="rect3754-1"
       width="31.350351"
       height="34.883255"
       x="600.53607"
       y="473.96729"
       transform="matrix(0.7892809,0.6140323,-0.6140323,0.7892809,0,0)"
       inkscape:transform-center-x="-77.534963"
       inkscape:transform-center-y="23.39139" />
    <rect
       style="fill:#ffffff;fill-opacity:1;stroke:none"
       id="rect3754-4"
       width="13.795273"
       height="12.939405"
       x="661.60132"
       y="313.61404"
       transform="matrix(0.65688755,0.75398856,-0.75398856,0.65688755,0,0)" />
    <rect
       style="fill:#ffffff;fill-opacity:1;stroke:none"
       id="rect3754-9"
       width="17.927387"
       height="20.987482"
       x="618.71356"
       y="103.54628"
       transform="matrix(0.46694708,0.88428526,-0.91266644,0.40870524,0,0)" />
    <rect
       style="opacity:0.98557691;fill:#ffffff;fill-opacity:1;fill-rule:nonzero;stroke:none"
       id="rect3695-11"
       width="15.626556"
       height="15.626556"
       x="-458.12506"
       y="711.39288"
       transform="matrix(0.73012378,-0.68331491,0.73012378,0.68331491,0,0)" />
    <rect
       style="opacity:0.98557691;fill:#ffffff;fill-opacity:1;fill-rule:nonzero;stroke:none"
       id="rect3695-11-8"
       width="27.04142"
       height="27.04142"
       x="-239.56731"
       y="794.45166"
       transform="matrix(0.93634075,-0.35109259,0.45605991,0.88994908,0,0)"
       inkscape:transform-center-x="-18.826194"
       inkscape:transform-center-y="-62.905743" />
    <rect
       style="opacity:0.98557691;fill:#ffffff;fill-opacity:1;fill-rule:nonzero;stroke:none"
       id="rect3695-11-8-5"
       width="27.04142"
       height="27.04142"
       x="-872.14227"
       y="-50.920856"
       transform="matrix(-0.32666669,-0.9451396,0.90148854,-0.43280297,0,0)"
       inkscape:transform-center-x="62.395725"
       inkscape:transform-center-y="-20.452889" />
    <rect
       style="opacity:0.98557691;fill:#ffffff;fill-opacity:1;fill-rule:nonzero;stroke:none"
       id="rect3695-11-8-6"
       width="18.963766"
       height="20.650341"
       x="-717.44543"
       y="516.98029"
       transform="matrix(0.42403829,-0.90564426,0.91471313,0.4041038,0,0)"
       inkscape:transform-center-x="23.16592"
       inkscape:transform-center-y="-45.296873" />
    <rect
       style="opacity:0.98557691;fill:#ffffff;fill-opacity:1;fill-rule:nonzero;stroke:none"
       id="rect3695-11-8-8"
       width="27.04142"
       height="27.04142"
       x="-212.33946"
       y="834.78223"
       transform="matrix(0.93634075,-0.35109259,0.45605991,0.88994908,0,0)"
       inkscape:transform-center-x="-18.82623"
       inkscape:transform-center-y="-62.905684" />
    <rect
       style="opacity:0.98557691;fill:#ffffff;fill-opacity:1;fill-rule:nonzero;stroke:none"
       id="rect3695-11-8-2"
       width="13.323927"
       height="12.998782"
       x="-158.98662"
       y="693.36493"
       transform="matrix(0.94049191,-0.33981609,0.46954003,0.88291118,0,0)"
       inkscape:transform-center-x="-9.3172394"
       inkscape:transform-center-y="-29.999555" />
    <rect
       style="opacity:0.98557691;fill:#ffffff;fill-opacity:1;fill-rule:nonzero;stroke:none"
       id="rect3695-11-8-54"
       width="12.560199"
       height="13.730588"
       x="563.64392"
       y="389.54279"
       transform="matrix(0.81636161,0.5775411,-0.56302142,0.8264423,0,0)"
       inkscape:transform-center-x="-32.393716"
       inkscape:transform-center-y="-9.8175366" />
    <rect
       style="opacity:0.98557691;fill:#ffffff;fill-opacity:1;fill-rule:nonzero;stroke:none"
       id="rect3695-11-1"
       width="15.626556"
       height="15.626556"
       x="-410.6955"
       y="669.9743"
       transform="matrix(0.73012378,-0.68331491,0.73012378,0.68331491,0,0)" />
    <rect
       style="opacity:0.98557691;fill:#ffffff;fill-opacity:1;fill-rule:nonzero;stroke:none"
       id="rect3695-11-3"
       width="15.626556"
       height="15.626556"
       x="-393.62335"
       y="717.01929"
       transform="matrix(0.73012378,-0.68331491,0.73012378,0.68331491,0,0)" />
    <rect
       style="opacity:0.98557691;fill:#ffffff;fill-opacity:1;fill-rule:nonzero;stroke:none"
       id="rect3695-11-13"
       width="15.626556"
       height="15.626556"
       x="-450.59045"
       y="655.77032"
       transform="matrix(0.73012378,-0.68331491,0.73012378,0.68331491,0,0)" />
    <rect
       style="opacity:0.98557691;fill:#ffffff;fill-opacity:1;fill-rule:nonzero;stroke:none"
       id="rect3695-11-4"
       width="15.626556"
       height="15.626556"
       x="-471.80792"
       y="765.14893"
       transform="matrix(0.73012378,-0.68331491,0.73012378,0.68331491,0,0)" />
    <rect
       style="opacity:0.98557691;fill:#ffffff;fill-opacity:1;fill-rule:nonzero;stroke:none"
       id="rect3695-11-9"
       width="15.626556"
       height="15.626556"
       x="-500.10614"
       y="713.30066"
       transform="matrix(0.73012378,-0.68331491,0.73012378,0.68331491,0,0)" />
    <rect
       style="opacity:0.98557691;fill:#ffffff;fill-opacity:1;fill-rule:nonzero;stroke:none"
       id="rect3695-11-8-54-3"
       width="12.560199"
       height="13.730588"
       x="624.46729"
       y="15.87757"
       transform="matrix(0.37486229,0.92708051,-0.92030987,0.39119017,0,0)"
       inkscape:transform-center-x="-32.562455"
       inkscape:transform-center-y="9.2424485" />
    <text
       xml:space="preserve"
       style="font-size:160px;font-style:normal;font-variant:normal;font-weight:normal;font-stretch:normal;text-align:start;line-height:125%;writing-mode:lr-tb;text-anchor:start;fill:#ff6600;fill-opacity:0.9372549;stroke:none;font-family:Good Times;-inkscape-font-specification:Good Times"
       x="46.473026"
       y="1024.6997"
       id="text2856"
       sodipodi:linespacing="125%"><tspan
         sodipodi:role="line"
         id="tspan2858"
         x="46.473026"
         y="1024.6997">SPIGOT</tspan></text>
  </g>
</svg>
