<?xml version="1.0" encoding="UTF-8" standalone="no"?>
<!-- Created with Inkscape (http://www.inkscape.org/) -->

<svg
   xmlns:dc="http://purl.org/dc/elements/1.1/"
   xmlns:cc="http://creativecommons.org/ns#"
   xmlns:rdf="http://www.w3.org/1999/02/22-rdf-syntax-ns#"
   xmlns:svg="http://www.w3.org/2000/svg"
   xmlns="http://www.w3.org/2000/svg"
   xmlns:sodipodi="http://sodipodi.sourceforge.net/DTD/sodipodi-0.dtd"
   xmlns:inkscape="http://www.inkscape.org/namespaces/inkscape"
   width="800"
   height="800"
   id="svg4148"
   version="1.1"
   inkscape:version="0.47 r22583"
   sodipodi:docname="Spigot.svg">
  <defs
     id="defs3">
    <inkscape:perspective
       sodipodi:type="inkscape:persp3d"
       inkscape:vp_x="0 : 526.18109 : 1"
       inkscape:vp_y="0 : 1000 : 0"
       inkscape:vp_z="744.09448 : 526.18109 : 1"
       inkscape:persp3d-origin="372.04724 : 350.78739 : 1"
       id="perspective4154" />
    <inkscape:perspective
       id="perspective4115"
       inkscape:persp3d-origin="0.5 : 0.33333333 : 1"
       inkscape:vp_z="1 : 0.5 : 1"
       inkscape:vp_y="0 : 1000 : 0"
       inkscape:vp_x="0 : 0.5 : 1"
       sodipodi:type="inkscape:persp3d" />
  </defs>
  <sodipodi:namedview
     inkscape:document-units="mm"
     id="base"
     pagecolor="#ffffff"
     bordercolor="#666666"
     borderopacity="1.0"
     inkscape:pageopacity="0.0"
     inkscape:pageshadow="2"
     inkscape:zoom="0.35"
     inkscape:cx="350"
     inkscape:cy="520"
     inkscape:current-layer="layer1"
     showgrid="true"
     inkscape:window-width="1280"
     inkscape:window-height="968"
     inkscape:window-x="-4"
     inkscape:window-y="-4"
     inkscape:window-maximized="1">
    <inkscape:grid
       type="xygrid"
       id="grid4223"
       empspacing="5"
       visible="true"
       enabled="true"
       snapvisiblegridlinesonly="true" />
  </sodipodi:namedview>
  <metadata
     id="metadata4">
    <rdf:RDF>
      <cc:Work
         rdf:about="">
        <dc:format>image/svg+xml</dc:format>
        <dc:type
           rdf:resource="http://purl.org/dc/dcmitype/StillImage" />
        <dc:title></dc:title>
      </cc:Work>
    </rdf:RDF>
  </metadata>
  <g
     inkscape:label="Layer 1"
     inkscape:groupmode="layer"
     id="layer1"
     transform="translate(0,-252.36218)">
    <rect
       style="opacity:0.98557691;fill:#fb6000;fill-opacity:1;fill-rule:nonzero;stroke:none"
       id="rect4221"
       width="800"
       height="800"
       x="6.9874662e-15"
       y="252.36218" />
    <rect
       style="fill:#ffffff;fill-opacity:1;stroke:none"
       id="rect3746"
       width="51.020191"
       height="51.803761"
       x="518.23682"
       y="611.22803"
       transform="matrix(0.88687242,0.4620144,-0.50363214,0.86391821,0,0)"
       inkscape:transform-center-x="-16.25816"
       inkscape:transform-center-y="30.616355" />
    <rect
       style="fill:#ffffff;fill-opacity:1;stroke:none"
       id="rect3748"
       width="41.857723"
       height="50.344597"
       x="140.17928"
       y="-786.03943"
       transform="matrix(-0.72431083,0.68947358,-0.28923297,-0.95725874,0,0)"
       inkscape:transform-center-x="-10.91214"
       inkscape:transform-center-y="16.368259" />
    <rect
       style="fill:#ffffff;fill-opacity:1;stroke:none"
       id="rect3754"
       width="38.974419"
       height="43.366486"
       x="93.741898"
       y="728.71979" />
    <rect
       style="fill:#ffffff;fill-opacity:1;stroke:none"
       id="rect3756"
       width="44.296928"
       height="46.892521"
       x="-203.11122"
       y="673.70361"
       transform="matrix(0.79856999,-0.60190196,0.44975022,0.89315438,0,0)" />
    <rect
       style="fill:#ffffff;fill-opacity:1;stroke:none"
       id="rect3758"
       width="39.460632"
       height="55.647865"
       x="863.13837"
       y="16.667181"
       transform="matrix(0.25860639,0.96598278,-0.97837678,0.20683055,0,0)" />
    <rect
       style="fill:#ffffff;fill-opacity:1;stroke:none"
       id="rect3760"
       width="51.274044"
       height="43.771481"
       x="756.36145"
       y="517.41705"
       transform="matrix(0.71011998,0.70408069,-0.70261482,0.71157039,0,0)" />
    <g
       id="g2944"
       transform="matrix(1.6547292,0,0,1.7126978,-398.95116,435.45502)">
      <path
         inkscape:label="Spout"
         sodipodi:nodetypes="csccccc"
         id="Spout"
         d="m 295.37107,119.80411 c -0.55164,31.31524 25.22482,26.67927 52.89795,21.23952 25.23249,-4.96 14.4869,7.68498 36.81926,-12.66377 13.9413,-10.32512 87.23717,-11.03731 146.08695,-1.73337 L 531.74272,75.568131 414.78889,73.86654 C 378.9456,78.174815 296.73121,55.635047 295.37107,119.80411 z"
         style="fill:#ffffff;fill-opacity:1;fill-rule:nonzero;stroke:none" />
      <rect
         y="-37.287659"
         x="575.20557"
         height="60.848824"
         width="37.877186"
         id="rect4523"
         style="fill:#ffffff;fill-opacity:1;fill-rule:nonzero;stroke:none" />
      <rect
         inkscape:label="#rect4528"
         y="-74.132027"
         x="578.55493"
         height="14.042037"
         width="27.224226"
         id="top"
         style="fill:#ffffff;fill-opacity:1;fill-rule:nonzero;stroke:none" />
      <path
         inkscape:label="#path4525"
         sodipodi:nodetypes="csssc"
         id="handle"
         d="m 679.34918,-47.035679 c -1.01371,26.938753 -15.3786,12.879754 -82.86976,12.879754 -67.49117,0 -82.98455,9.912635 -82.36322,-12.879754 0.64346,-23.604459 13.40415,-13.392412 80.89531,-13.392412 67.49116,0 84.33767,-8.559336 84.33767,13.392412 z"
         style="fill:#ffffff;fill-opacity:1;fill-rule:nonzero;stroke:none" />
      <rect
         y="163.25925"
         x="567.55231"
         height="111.16612"
         width="60.366764"
         id="rect4740"
         style="fill:#ffffff;fill-opacity:1;fill-rule:nonzero;stroke:none" />
      <path
         sodipodi:nodetypes="ccccc"
         id="rect3745"
         d="m 528.185,29.347437 c 0,-38.9292018 133.38321,-41.945239 133.38321,0 l 0,134.525573 c -65.38392,55.80943 -64.07626,53.19477 -133.38321,0 l 0,-134.525573 z"
         style="fill:#ffffff;fill-opacity:1;stroke:none" />
    </g>
    <rect
       style="fill:#ffffff;fill-opacity:1;stroke:none"
       id="rect3754-1"
       width="38.974419"
       height="43.366486"
       x="634.33118"
       y="618.00543"
       transform="matrix(0.7892809,0.6140323,-0.6140323,0.7892809,0,0)"
       inkscape:transform-center-x="-96.390621"
       inkscape:transform-center-y="29.079952" />
    <rect
       style="fill:#ffffff;fill-opacity:1;stroke:none"
       id="rect3754-4"
       width="17.150135"
       height="16.08613"
       x="717.84766"
       y="439.6467"
       transform="matrix(0.65688755,0.75398856,-0.75398856,0.65688755,0,0)" />
    <rect
       style="fill:#ffffff;fill-opacity:1;stroke:none"
       id="rect3754-9"
       width="22.287134"
       height="26.091412"
       x="683.38989"
       y="201.26859"
       transform="matrix(0.46694708,0.88428526,-0.91266644,0.40870524,0,0)" />
    <rect
       style="opacity:0.98557691;fill:#ffffff;fill-opacity:1;fill-rule:nonzero;stroke:none"
       id="rect3695-11"
       width="19.426767"
       height="19.426767"
       x="-608.492"
       y="777.80908"
       transform="matrix(0.73012378,-0.68331491,0.73012378,0.68331491,0,0)" />
    <rect
       style="opacity:0.98557691;fill:#ffffff;fill-opacity:1;fill-rule:nonzero;stroke:none"
       id="rect3695-11-8"
       width="33.617603"
       height="33.617603"
       x="-371.80838"
       y="906.53967"
       transform="matrix(0.93634075,-0.35109259,0.45605991,0.88994908,0,0)"
       inkscape:transform-center-x="-23.404538"
       inkscape:transform-center-y="-78.203731" />
    <rect
       style="opacity:0.98557691;fill:#ffffff;fill-opacity:1;fill-rule:nonzero;stroke:none"
       id="rect3695-11-8-5"
       width="33.617603"
       height="33.617603"
       x="-996.00458"
       y="-149.20815"
       transform="matrix(-0.32666669,-0.9451396,0.90148854,-0.43280297,0,0)"
       inkscape:transform-center-x="77.569706"
       inkscape:transform-center-y="-25.426819" />
    <rect
       style="opacity:0.98557691;fill:#ffffff;fill-opacity:1;fill-rule:nonzero;stroke:none"
       id="rect3695-11-8-6"
       width="23.57555"
       height="25.672281"
       x="-892.59045"
       y="526.84277"
       transform="matrix(0.42403829,-0.90564426,0.91471313,0.4041038,0,0)"
       inkscape:transform-center-x="28.799604"
       inkscape:transform-center-y="-56.312593" />
    <rect
       style="opacity:0.98557691;fill:#ffffff;fill-opacity:1;fill-rule:nonzero;stroke:none"
       id="rect3695-11-8-8"
       width="33.617603"
       height="33.617603"
       x="-337.95901"
       y="956.67816"
       transform="matrix(0.93634075,-0.35109259,0.45605991,0.88994908,0,0)"
       inkscape:transform-center-x="-23.404568"
       inkscape:transform-center-y="-78.203692" />
    <rect
       style="opacity:0.98557691;fill:#ffffff;fill-opacity:1;fill-rule:nonzero;stroke:none"
       id="rect3695-11-8-2"
       width="16.564163"
       height="16.159946"
       x="-270.50714"
       y="781.60065"
       transform="matrix(0.94049191,-0.33981609,0.46954003,0.88291118,0,0)"
       inkscape:transform-center-x="-11.583091"
       inkscape:transform-center-y="-37.295142" />
    <rect
       style="opacity:0.98557691;fill:#ffffff;fill-opacity:1;fill-rule:nonzero;stroke:none"
       id="rect3695-11-8-54"
       width="15.614704"
       height="17.069719"
       x="586.85797"
       y="507.92426"
       transform="matrix(0.81636161,0.5775411,-0.56302142,0.8264423,0,0)"
       inkscape:transform-center-x="-40.271525"
       inkscape:transform-center-y="-12.205067" />
    <rect
       style="opacity:0.98557691;fill:#ffffff;fill-opacity:1;fill-rule:nonzero;stroke:none"
       id="rect3695-11-1"
       width="19.426767"
       height="19.426767"
       x="-549.52808"
       y="726.31793"
       transform="matrix(0.73012378,-0.68331491,0.73012378,0.68331491,0,0)" />
    <rect
       style="opacity:0.98557691;fill:#ffffff;fill-opacity:1;fill-rule:nonzero;stroke:none"
       id="rect3695-11-3"
       width="19.426767"
       height="19.426767"
       x="-528.30414"
       y="784.80377"
       transform="matrix(0.73012378,-0.68331491,0.73012378,0.68331491,0,0)" />
    <rect
       style="opacity:0.98557691;fill:#ffffff;fill-opacity:1;fill-rule:nonzero;stroke:none"
       id="rect3695-11-13"
       width="19.426767"
       height="19.426767"
       x="-599.12506"
       y="708.65973"
       transform="matrix(0.73012378,-0.68331491,0.73012378,0.68331491,0,0)" />
    <rect
       style="opacity:0.98557691;fill:#ffffff;fill-opacity:1;fill-rule:nonzero;stroke:none"
       id="rect3695-11-4"
       width="19.426767"
       height="19.426767"
       x="-625.50238"
       y="844.638"
       transform="matrix(0.73012378,-0.68331491,0.73012378,0.68331491,0,0)" />
    <rect
       style="opacity:0.98557691;fill:#ffffff;fill-opacity:1;fill-rule:nonzero;stroke:none"
       id="rect3695-11-9"
       width="19.426767"
       height="19.426767"
       x="-660.68243"
       y="780.18079"
       transform="matrix(0.73012378,-0.68331491,0.73012378,0.68331491,0,0)" />
    <rect
       style="opacity:0.98557691;fill:#ffffff;fill-opacity:1;fill-rule:nonzero;stroke:none"
       id="rect3695-11-8-54-3"
       width="15.614704"
       height="17.069719"
       x="692.21783"
       y="100.94338"
       transform="matrix(0.37486229,0.92708051,-0.92030987,0.39119017,0,0)"
       inkscape:transform-center-x="-40.481297"
       inkscape:transform-center-y="11.490128" />
  </g>
</svg>
